<?xml version="1.0" encoding="UTF-8"?>
<svg width="16px" height="16px" viewBox="0 0 16 16" version="1.1" xmlns="http://www.w3.org/2000/svg" xmlns:xlink="http://www.w3.org/1999/xlink">
    <!-- Generator: Sketch 52.6 (67491) - http://www.bohemiancoding.com/sketch -->
    <title>Shape</title>
    <desc>Created with Sketch.</desc>
    <g id="Working-File" stroke="none" stroke-width="1" fill="none" fill-rule="evenodd">
        <g id="Intro" transform="translate(-1302.000000, -841.000000)" fill="#FFFFFF" fill-rule="nonzero">
            <g id="Credits" transform="translate(65.000000, 836.000000)">
                <g id="?" transform="translate(1237.000000, 0.000000)">
                    <g id="Music" transform="translate(0.000000, 5.000000)">
                        <path d="M15.2264381,0.704304762 C15.2249905,0.684495238 15.2322286,0.666209524 15.229181,0.646171429 C15.220449,0.617054511 15.2098622,0.588526352 15.1974857,0.560761905 C15.1504375,0.371449585 15.0266766,0.210281483 14.8559238,0.115961905 C14.7702912,0.0613485905 14.6727552,0.0281831878 14.571581,0.0192761905 C14.5402574,0.0106976796 14.5083872,0.00425744993 14.4761905,0 C14.4555429,0 14.4380952,0.0101333333 14.417981,0.0117333333 C14.3978667,0.0133333333 14.3798857,0.00594285714 14.3604571,0.00891428571 L4.45569524,1.53272381 C4.42584612,1.54152609 4.39660307,1.55226635 4.36815238,1.56487619 C4.31867202,1.57741313 4.2706199,1.59503054 4.2247619,1.61744762 C4.18273345,1.64016042 4.14302701,1.6669291 4.10620952,1.69737143 C4.02791249,1.75442313 3.96397652,1.82892379 3.91946667,1.91497143 C3.89494826,1.95604135 3.87453235,1.99942515 3.85851429,2.04449524 C3.84342162,2.09287999 3.83336199,2.142693 3.82849524,2.19314286 C3.8201533,2.22355179 3.81381587,2.25447538 3.80952381,2.28571429 L3.80952381,10.8958476 C3.44720437,10.7455173 3.05893392,10.6676562 2.66666667,10.6666667 C1.30237699,10.5714216 0.114531565,11.5895749 0,12.952381 C0.114531565,14.3151871 1.30237699,15.3333403 2.66666667,15.2380952 C4.03095635,15.3333403 5.21880177,14.3151871 5.33333333,12.952381 L5.33333333,2.93927619 L13.7142857,1.64990476 L13.7142857,9.3720381 C13.3519663,9.2217078 12.9636958,9.14384664 12.5714286,9.14285714 C11.2071389,9.04761211 10.0192935,10.0657653 9.9047619,11.4285714 C10.0192935,12.7913775 11.2071389,13.8095307 12.5714286,13.7142857 C13.9357183,13.8095307 15.1235637,12.7913775 15.2380952,11.4285714 L15.2380952,0.761904762 C15.2380952,0.741485714 15.2280381,0.724342857 15.2264381,0.704304762 Z M2.66666667,13.7142857 C2.05805714,13.7142857 1.52380952,13.3578667 1.52380952,12.952381 C1.52380952,12.5468952 2.05805714,12.1904762 2.66666667,12.1904762 C3.27527619,12.1904762 3.80952381,12.5468952 3.80952381,12.952381 C3.80952381,13.3578667 3.27527619,13.7142857 2.66666667,13.7142857 Z M12.5714286,12.1904762 C11.962819,12.1904762 11.4285714,11.8340571 11.4285714,11.4285714 C11.4285714,11.0230857 11.962819,10.6666667 12.5714286,10.6666667 C13.1800381,10.6666667 13.7142857,11.0230857 13.7142857,11.4285714 C13.7142857,11.8340571 13.1800381,12.1904762 12.5714286,12.1904762 Z" id="Shape"></path>
                    </g>
                </g>
            </g>
        </g>
    </g>
</svg>