<?xml version="1.0" encoding="UTF-8"?>
<svg width="11px" height="10px" viewBox="0 0 11 10" version="1.1" xmlns="http://www.w3.org/2000/svg" xmlns:xlink="http://www.w3.org/1999/xlink">
    <!-- Generator: Sketch 52.6 (67491) - http://www.bohemiancoding.com/sketch -->
    <title>email</title>
    <desc>Created with Sketch.</desc>
    <g id="Working-File" stroke="none" stroke-width="1" fill="none" fill-rule="evenodd">
        <g id="Intro" transform="translate(-199.000000, -843.000000)" fill="#FFFFFF">
            <g id="Credits" transform="translate(65.000000, 836.000000)">
                <g id="Share" transform="translate(0.000000, 2.000000)">
                    <g id="Group-3" transform="translate(40.000000, 0.000000)">
                        <g id="send-copy" transform="translate(90.000000, 0.000000)">
                            <path d="M14.085758,5.4186229 L12.6572139,13.9898879 C12.6386129,14.0977733 12.5790908,14.1814762 12.4786458,14.2409992 C12.4265632,14.2707606 12.3689012,14.2856412 12.3056581,14.2856412 C12.264736,14.2856412 12.2200945,14.2763408 12.171732,14.2577399 L9.64387851,13.2253935 L8.29345786,14.8715675 C8.22649452,14.9571318 8.13535133,14.9999132 8.02002558,14.9999132 C7.97166316,14.9999132 7.93074173,14.992473 7.89726006,14.9775922 C7.82657653,14.9515509 7.76984455,14.9078394 7.72706242,14.8464564 C7.68428028,14.7850733 7.66288954,14.7171809 7.66288954,14.6427772 L7.66288954,12.6952697 L12.4842261,6.78578431 L6.51893816,11.9475161 L4.31473916,11.0435155 C4.17709228,10.9914329 4.10268969,10.8891294 4.09152913,10.7366018 C4.08408876,10.5877943 4.14361084,10.4780505 4.27009715,10.407367 L13.5556342,5.05032636 C13.611437,5.01684469 13.6709591,5.00010411 13.7342022,5.00010411 C13.8086059,5.00010411 13.8755683,5.02056482 13.9350912,5.06148686 C14.0578574,5.15077132 14.1080791,5.26981548 14.085758,5.4186229 Z" id="email"></path>
                        </g>
                    </g>
                </g>
            </g>
        </g>
    </g>
</svg>