<?xml version="1.0" encoding="UTF-8"?>
<svg width="26.5px" height="35px" viewBox="0 0 53 70" version="1.1" xmlns="http://www.w3.org/2000/svg" xmlns:xlink="http://www.w3.org/1999/xlink">
    <!-- Generator: Sketch 52.6 (67491) - http://www.bohemiancoding.com/sketch -->
    <title>perfect</title>
    <desc>Created with Sketch.</desc>
    <g id="Page-1" stroke="none" stroke-width="1" fill="none" fill-rule="evenodd">
        <g id="perfect">
            <polygon id="Path" fill="#FFFFFF" points="20.6469184 49.8224331 36.2812308 42.4330055 37.0947574 40.6584162 35.7701692 38.1232885 35.603292 25.0345184 30.3153691 2.55638658 26.5084818 0.922637651 23.5359808 2.85684615 25.0274463 12.5278887 14.117846 1.96485679 9.97720426 3.29814615 10.1440815 6.87549294 17.090347 13.5701078 3.19781598 20.1144929 4.19907948 23.9922992 8.54831781 25.7105524 17.1320664 19.2976184 27.5618945 29.1658375 15.452864 38.0669523 8.92379162 34.7525077 7.505335 28.1517864 2.54073681 28.3020162 2.70761406 33.0624226 5.0230359 39.616197 15.9847853 44.8648502"></polygon>
            <path d="M39.7839654,42.1497712 L37.5797557,39.6188798 L37.5797557,25.8478531 C37.5787813,25.4370253 37.3738597,25.0480427 37.020942,24.7871119 L32.1364962,3.5071538 C31.5305236,1.10762334 28.8947893,-0.410379607 26.2172459,0.0980699109 C23.5397025,0.606519429 21.8117035,2.95316931 22.3365593,5.36810335 L23.2886123,9.5087161 L17.079571,2.50224105 C15.3196897,0.701078903 12.29893,0.455428475 10.2082013,1.94345617 C8.11747272,3.43148386 7.68985041,6.13144041 9.23548215,8.08508969 L13.9853987,13.4539291 L4.77532081,17.6782846 C2.93526336,18.3630436 1.721177,19.9629054 1.68301681,21.7531669 C1.64485663,23.5434284 2.78987297,25.1839443 4.59939798,25.9315959 C4.01390898,25.9980263 3.44819152,26.1654746 2.93330523,26.4247475 C0.760140772,27.5227077 -0.0159893912,29.7744567 0.863624793,32.2681291 L3.2541057,39.3769564 C3.3650153,39.6946824 3.59553574,39.9677552 3.90605503,40.1492504 L15.4341751,46.7928403 L19.8425944,52.040718 C20.3054686,52.5757466 21.1236954,52.7431297 21.7984424,52.4408222 L39.3079389,44.2526442 C39.7128043,44.0629388 40.0042613,43.7225972 40.1047658,43.3221694 C40.2125279,42.9077289 40.0932854,42.4719451 39.7839654,42.1497712 Z M21.5086871,49.4167792 L17.7211719,44.9132813 C17.6073624,44.7829935 17.4711129,44.6699086 17.3175842,44.5783103 L6.03782588,38.0649869 L3.80257101,31.421397 C3.59560297,30.8445027 3.23340889,29.4394858 4.40277834,28.8532867 C4.93216835,28.6404521 5.53658158,28.6370766 6.06887109,28.8439819 C6.48465791,28.9621273 6.81914723,29.2423768 6.97953048,29.6069712 L9.04921091,34.9851154 C9.1922924,35.3301244 9.47249341,35.6152169 9.83568948,35.7853237 L15.5273107,38.2696914 C16.1049939,38.5203326 16.7943546,38.4280949 17.2658422,38.0370727 L27.5418056,29.4487905 C28.1839526,28.9319789 28.2395111,28.0452722 27.6659864,27.4668792 L27.5418056,27.3552223 L17.1934034,19.6695006 C16.7050635,19.3006434 16.0154935,19.2379027 15.4548719,19.5113199 L7.32102775,23.5123615 C6.34085986,23.8412491 5.24975603,23.3934173 4.8839791,22.512101 C4.51820216,21.6307848 5.01626441,20.6497207 5.99643227,20.320833 L6.1309615,20.2650045 L17.4314167,14.9985173 L34.4752351,26.5457092 L34.4752351,40.1027267 C34.4789596,40.4157335 34.5951176,40.7192716 34.8063839,40.9680682 L36.1930698,42.5498753 L21.5086871,49.4167792 Z M7.47625378,26.3130905 C7.83108034,26.2572215 8.17807653,26.1667412 8.511094,26.0432528 L8.67666843,25.9781196 L15.9826404,22.3771822 L24.0957877,28.4438778 L15.8895047,35.3014768 L11.7501439,33.487051 L9.9495219,28.657887 C9.52843954,27.5983734 8.63067325,26.7472408 7.47625378,26.3130905 Z M11.2948142,5.08896092 C11.4191832,4.16416213 12.3315309,3.49148671 13.3644946,3.56298229 C13.8614599,3.61649515 14.3150078,3.84379729 14.6269997,4.19570514 L26.651843,17.7527226 L18.5179989,12.2443119 C18.0490181,11.9098334 17.4062973,11.8516798 16.872603,12.095436 L11.6984019,6.28927338 C11.3960841,5.95125502 11.2514038,5.52096046 11.2948142,5.08896092 Z M25.3789895,4.76329475 C25.2421958,4.16658896 25.4698379,3.5495915 25.9761654,3.14471934 C26.4824928,2.73984717 27.1905824,2.60861003 27.8337036,2.80044367 C28.4768248,2.9922773 28.9572722,3.47803762 29.0940659,4.07474342 L32.7987939,20.2184808 L27.6245928,14.3099659 L25.3789895,4.76329475 Z" id="Shape" fill="#000000" fill-rule="nonzero"></path>
            <polygon id="Rectangle" fill="#41C1D0" transform="translate(34.207876, 54.878886) rotate(-28.800000) translate(-34.207876, -54.878886) " points="18.6409422 44.7960128 49.0218144 46.2197259 49.7748105 64.9617597 19.3939383 63.5380466"></polygon>
            <path d="M44.7962593,43.6434304 C45.043994,43.0102766 44.9832391,42.3130085 44.6288356,41.7219514 C44.5362139,41.5856136 44.434894,41.4541726 44.3253801,41.3282825 L44.1998124,41.2251787 C44.1212995,41.1486116 44.0374176,41.0766054 43.9486768,41.0095982 C43.8725199,40.957371 43.7920671,40.910372 43.7080052,40.8690021 L43.5824375,40.7658984 C43.4875798,40.7227932 43.3897121,40.6852227 43.289446,40.6534216 L43.0697024,40.6440485 C42.9743263,40.6185712 42.8760364,40.6028492 42.7767109,40.5971832 L42.5674313,40.5971832 L42.3686156,40.5971832 C41.915704,40.5843406 41.4673513,40.6815043 41.0710819,40.8783752 C40.858087,40.9827261 40.664032,41.1154643 40.4955629,41.2720441 L38.4027666,42.3312008 C38.139609,42.3739233 37.8854483,42.4529731 37.64936,42.5655275 C37.4049095,42.6875408 37.1855032,42.8460347 37.0005931,43.034181 L35.0752205,43.9714878 C34.4497944,44.0343707 33.8796167,44.3218702 33.4951593,44.7681986 L31.7581384,45.639894 C31.420419,45.666731 31.092602,45.7560999 30.7954521,45.9023399 C30.479336,46.057015 30.2044397,46.2712733 29.9897256,46.5303355 L28.4410563,47.3083002 C28.0745642,47.3374348 27.7185326,47.4331089 27.3946582,47.5894922 C27.0555056,47.7617655 26.7626202,47.9985211 26.5366117,48.2830993 L25.1135102,49.0048256 C24.7144383,49.0118932 24.323167,49.1051401 23.9729362,49.2766446 C23.609529,49.4575348 23.3006867,49.7148783 23.0730338,50.02649 L21.7545722,50.6919779 C21.3310055,50.6906111 20.9137675,50.7840459 20.5407503,50.9637969 C20.1606059,51.159287 19.8406003,51.4362686 19.609456,51.7698808 L18.4060981,52.3791302 C17.9564909,52.3661069 17.5114523,52.4633365 17.1190284,52.6603223 C16.020061,53.192663 15.4976246,54.3488249 15.8738146,55.4160044 C15.9256534,55.5691736 15.9958207,55.716876 16.0830942,55.8565386 C16.4450109,56.4409627 17.0702368,56.8575805 17.7991872,57.000053 C17.5447439,57.63241 17.605718,58.3321942 17.9666109,58.921532 C18.3251928,59.5103564 18.9512387,59.9309399 19.6827038,60.0744194 C19.4262939,60.6990815 19.4811015,61.3922305 19.8332432,61.9782842 C20.1853849,62.5643379 20.8010795,62.9870755 21.5243646,63.1394128 C21.2855142,63.7578137 21.3462182,64.437505 21.6917883,65.0140265 C22.0503702,65.6028509 22.6764161,66.0234344 23.4078812,66.1669139 C23.1703224,66.7854616 23.2309839,67.4646773 23.5753049,68.0415276 C23.6606824,68.1819652 23.7623998,68.3139218 23.8787604,68.4351965 C24.1708712,68.7073784 24.5288754,68.9158209 24.9251585,69.044446 L25.1658301,69.1381766 C25.2634107,69.1432841 25.361241,69.1432841 25.4588216,69.1381766 C25.8479649,69.2177062 26.2521082,69.2177062 26.6412515,69.1381766 C26.8113038,69.0894411 26.9759443,69.0266853 27.1330586,68.9507153 C27.7873505,68.6218482 28.2551373,68.0597508 28.4201283,67.404159 C29.1231672,67.6398179 29.9060214,67.5888487 30.5636272,67.2646022 C31.221233,66.9403558 31.6880689,66.3751389 31.8418503,65.7170067 C32.5401083,65.9565874 33.3199807,65.913555 33.9801318,65.599019 C34.6402829,65.284483 35.1160112,64.7292712 35.2845002,64.0767197 C35.973601,64.2923893 36.7318183,64.2414515 37.3772965,63.9361236 C38.0298214,63.6054579 38.4969462,63.0441559 38.6643662,62.3895673 C39.3675158,62.6218931 40.1486252,62.5693835 40.8051866,62.2456521 C41.461748,61.9219206 41.9291035,61.3588482 42.0860881,60.702415 C42.7893363,60.9314592 43.5687329,60.877436 44.2242716,60.5542088 C44.8798104,60.2309815 45.3476773,59.6700151 45.50781,59.0152627 C46.1981854,59.2292119 46.9569846,59.1748366 47.6006063,58.8652936 C48.2579628,58.5440953 48.7274972,57.9833173 48.887676,57.3281104 C49.9083571,57.6306099 51.0317954,57.3453684 51.7234521,56.6081055 C52.4151088,55.8708425 52.5353129,54.8304389 52.0268705,53.9819249 C51.6977237,53.4207115 51.1269667,53.0042602 50.4468093,52.8290375 C50.7098428,52.1980747 50.6530881,51.4957875 50.291347,50.9053364 C49.929606,50.3148853 49.2987437,49.8948109 48.5632926,49.754671 C48.8160825,49.1323692 48.7592708,48.4428909 48.4072229,47.8605767 C48.0551749,47.2782625 47.4415949,46.8588618 46.7216319,46.7084238 C46.9611251,46.0910147 46.904298,45.4123134 46.5646722,44.8338101 C46.205292,44.2188041 45.5557172,43.7815529 44.7962593,43.6434304 Z M36.4250741,43.7840264 C36.4250741,43.868384 36.3622903,43.9433686 36.3413623,44.0277262 C36.2499909,43.9971117 36.1553023,43.9751221 36.0588348,43.9621147 L36.4250741,43.7840264 Z M33.0347442,45.3868211 C32.9866209,45.4941676 32.9447093,45.6036654 32.9091764,45.7148785 C32.7833472,45.6737842 32.6538174,45.6424259 32.5220091,45.6211479 L33.0347442,45.3868211 Z M29.6444142,46.9896158 C29.5765445,47.1219384 29.5239513,47.2601281 29.4874545,47.4020309 C29.3279961,47.3502904 29.163279,47.3126194 28.9956473,47.289554 L29.6444142,46.9896158 Z M26.2645482,48.5830375 C26.1731703,48.7439351 26.1029409,48.9137859 26.0552685,49.0891832 C25.8560285,49.0254345 25.6485937,48.9844936 25.4378936,48.9673333 L26.2645482,48.5830375 Z M22.8951461,50.1670861 C22.775742,50.3578651 22.6876376,50.563055 22.6335466,50.7763355 C22.3866944,50.703363 22.1294758,50.6623324 21.869676,50.6544856 L22.8951461,50.1670861 Z M43.5824375,44.9181677 C43.9871497,44.6807062 44.5063405,44.666601 44.9263749,44.8816559 C45.3464093,45.0967108 45.5963256,45.5045939 45.5732889,45.9374708 C45.5502522,46.3703477 45.2581545,46.755087 44.8171873,46.9333774 C44.498295,47.0972052 44.3824375,47.4583558 44.5555877,47.7488344 C44.6416038,47.888059 44.7858493,47.9909671 44.9565825,48.0349136 C45.1273157,48.07886 45.3105465,48.0602436 45.4659541,47.9831611 C46.0929862,47.6725649 46.8823891,47.8760935 47.229135,48.4377549 C47.5758808,48.9994163 47.348664,49.7065208 46.7216319,50.017117 C46.4900151,50.108128 46.3353975,50.308259 46.3219179,50.5344911 C46.3084384,50.7607231 46.4383967,50.9744588 46.6578832,51.0870357 C46.8773696,51.1996125 47.1489377,51.1918239 47.3599348,51.0669006 C47.7636228,50.8442629 48.2712625,50.8384291 48.6811942,51.0517167 C49.0911259,51.2650044 49.3369758,51.6628792 49.3210803,52.0872856 C49.3051847,52.511692 49.0301173,52.8939126 48.6051486,53.0821104 C48.4479194,53.1575503 48.3307832,53.286056 48.2797106,53.4391359 C48.2286381,53.5922158 48.2478493,53.757221 48.333085,53.8975673 C48.5160341,54.1825841 48.9159127,54.2896293 49.2434514,54.1412671 C49.6989955,53.9127541 50.263522,53.9533947 50.6724761,54.2441434 C51.0814303,54.5348921 51.253775,55.0181352 51.1087443,55.4674097 C50.9637135,55.9166843 50.530046,56.2429636 50.010972,56.2933429 C49.491898,56.3437223 48.9902754,56.1082187 48.7411803,55.6971965 C48.6252893,55.5096707 48.4065138,55.3917711 48.1672645,55.3879093 C47.9280153,55.3840476 47.7046398,55.4948104 47.5812816,55.6784745 C47.4579233,55.8621385 47.4533233,56.0908009 47.5692144,56.2783267 C47.9101811,56.8373998 47.6806218,57.5382095 47.0564793,57.8436291 C46.4323368,58.1490486 45.6499612,57.9434219 45.3089944,57.3843488 C45.1298424,57.0944591 44.7222575,56.9895474 44.398628,57.1500221 C44.0749986,57.3104968 43.9578765,57.6755893 44.1370285,57.965479 C44.4021276,58.3279984 44.4178746,58.7930614 44.1777899,59.1693055 C43.9377051,59.5455496 43.4823493,59.769411 42.9990907,59.748776 C42.5158321,59.728141 42.0863137,59.4664957 41.8872725,59.0715011 C41.7081204,58.7816114 41.3005355,58.6766997 40.9769061,58.8371744 C40.6532766,58.9976491 40.5361545,59.3627416 40.7153065,59.6526314 C40.9358734,60.0142882 40.9242877,60.4538763 40.6849139,60.8058069 C40.4455401,61.1577376 40.0147446,61.3685442 39.5548039,61.358818 C39.0948632,61.3490917 38.6756534,61.1203103 38.4550865,60.7586534 C38.2721912,60.473007 37.869007,60.3692281 37.5447202,60.5243267 C37.3892915,60.6013753 37.2744061,60.7305826 37.2253448,60.8835162 C37.1762835,61.0364497 37.1970666,61.2005779 37.2831206,61.3397837 C37.5878723,61.8919352 37.3542594,62.5611407 36.7526313,62.8594188 C36.1510033,63.1576969 35.3938855,62.9796808 35.0333646,62.4551788 C34.931761,62.247709 34.7083371,62.1092109 34.4557744,62.0971367 C34.2032116,62.0850624 33.9645997,62.2014721 33.8389202,62.3980762 C33.7132407,62.5946803 33.7219359,62.8379363 33.8613987,63.026936 C34.205255,63.5860091 33.9780381,64.2889171 33.3538956,64.596925 C32.7297531,64.9049328 31.945035,64.7014043 31.6011787,64.1423312 C31.4995751,63.9348614 31.2761512,63.7963632 31.0235885,63.784289 C30.7710257,63.7722148 30.5324138,63.8886244 30.4067343,64.0852285 C30.2810548,64.2818326 30.2897499,64.5250886 30.4292128,64.7140883 C30.5931358,64.9825306 30.631204,65.298332 30.5350319,65.5919308 C30.4388598,65.8855295 30.2163367,66.1328413 29.9164777,66.2793908 C29.6196417,66.426539 29.2696252,66.4617991 28.9437161,66.3773851 C28.6178069,66.2929711 28.3428132,66.0958266 28.1794568,65.8294835 C28.0955239,65.688345 27.951275,65.5837335 27.7796925,65.5395685 C27.60811,65.4954035 27.4238669,65.5154617 27.2690904,65.5951568 C27.1118612,65.6705967 26.994725,65.7991024 26.9436524,65.9521823 C26.8925799,66.1052622 26.9117912,66.2702674 26.9970269,66.4106137 C27.1613014,66.6765033 27.2006653,66.9900292 27.1064266,67.2819609 C27.0121878,67.5738927 26.792098,67.8202173 26.4947558,67.9665431 C26.3417602,68.0398741 26.1750826,68.0875233 26.0029486,68.1071391 C25.8219464,68.1176068 25.6404455,68.0952921 25.4692856,68.0415276 C25.405024,68.0270146 25.3420645,68.008216 25.2809339,67.9852892 C24.8610617,67.7876805 24.5981073,67.3978502 24.5981073,66.9729978 C24.5981073,66.5481455 24.8610617,66.1583152 25.2809339,65.9607064 C25.6045633,65.8002317 25.7216854,65.4351392 25.5425334,65.1452495 C25.3633814,64.8553597 24.9557965,64.7504481 24.6321671,64.9109228 C24.2274548,65.1483842 23.708264,65.1624895 23.2882296,64.9474346 C22.8681952,64.7323797 22.618279,64.3244966 22.6413156,63.8916197 C22.6643523,63.4587427 22.95645,63.0740034 23.3974173,62.895713 C23.7239362,62.7352383 23.8434007,62.3680476 23.6642487,62.0755696 C23.4850967,61.7830915 23.0751694,61.6760817 22.7486504,61.8365563 C22.1322351,62.1095364 21.3851421,61.9002786 21.0521479,61.3613727 C20.7191538,60.8224668 20.9178889,60.1442817 21.5034366,59.8213466 C21.7350534,59.7303355 21.889671,59.5302045 21.9031506,59.3039725 C21.9166301,59.0777405 21.7866718,58.8640048 21.5671853,58.7514279 C21.3476989,58.638851 21.0761308,58.6466397 20.8651337,58.7715629 C20.565448,58.9183963 20.2128911,58.9524957 19.885121,58.8663499 C19.5573508,58.7802042 19.2812549,58.58088 19.1176488,58.3122826 C18.9533743,58.046393 18.9140104,57.7328671 19.0082491,57.4409353 C19.1024879,57.1490036 19.3225777,56.902679 19.6199199,56.7563532 C19.9440481,56.5920864 20.0644022,56.2272022 19.8919835,55.9315232 C19.8059674,55.7922986 19.6617219,55.6893904 19.4909887,55.645444 C19.3202555,55.6014976 19.1370247,55.6201139 18.9816171,55.6971965 C18.3546974,55.9876787 17.5835599,55.7717001 17.2530409,55.2130605 C16.9225219,54.6544208 17.1559453,53.9615607 17.7762809,53.6599502 C18.3966166,53.3583398 19.1724039,53.5605164 19.5152801,54.1131479 C19.6168838,54.3206177 19.8403076,54.4591158 20.0928704,54.47119 C20.3454331,54.4832643 20.5840451,54.3668546 20.7097246,54.1702506 C20.835404,53.9736465 20.8267089,53.7303905 20.6872461,53.5413907 C20.3433898,52.9823176 20.5706066,52.2794096 21.1947492,51.9714017 C21.8188917,51.6633939 22.6036098,51.8669225 22.947466,52.4259956 C22.9948535,52.6842417 23.2236763,52.885164 23.5128663,52.9224563 C23.8020563,52.9597486 24.0848593,52.8248026 24.2116468,52.5890171 C24.3384343,52.3532315 24.2799398,52.0710332 24.0671121,51.8917307 C23.7623604,51.3395792 23.9959733,50.6703737 24.5976014,50.3720955 C25.1992294,50.0738174 25.9563472,50.2518336 26.3168681,50.7763355 C26.4008009,50.917474 26.5450499,51.0220855 26.7166323,51.0662505 C26.8882148,51.1104155 27.0724579,51.0903573 27.2272345,51.0106622 C27.3844636,50.9352223 27.5015999,50.8067166 27.5526724,50.6536367 C27.6037449,50.5005568 27.5845337,50.3355516 27.499298,50.1952053 C27.3350234,49.9293157 27.2956595,49.6157898 27.3898983,49.323858 C27.4841371,49.0319263 27.7042269,48.7856017 28.0015691,48.6392759 C28.6229147,48.3320026 29.4046837,48.5332767 29.749054,49.0891832 C29.864945,49.276709 30.0837205,49.3946086 30.3229698,49.3984703 C30.562219,49.402332 30.7855945,49.2915692 30.9089527,49.1079052 C31.032311,48.9242411 31.036911,48.6955787 30.9210199,48.5080529 C30.6445733,47.9594484 30.8857996,47.3126705 31.4748669,47.023074 C32.0639342,46.7334775 32.8025821,46.898531 33.1707759,47.4020309 C33.349928,47.6945089 33.7598553,47.8015187 34.0863743,47.6410441 C34.4128933,47.4805694 34.5323578,47.1133787 34.3532058,46.8209006 C34.0767592,46.2722961 34.3179855,45.6255181 34.9070528,45.3359217 C35.4961201,45.0463252 36.234768,45.2113787 36.6029618,45.7148785 C36.7188529,45.9024043 36.9376283,46.0203039 37.1768776,46.0241657 C37.4161269,46.0280274 37.6395023,45.9172646 37.7628606,45.7336005 C37.8862188,45.5499365 37.8908188,45.3212741 37.7749278,45.1337483 C37.5098286,44.7712289 37.4940816,44.3061659 37.7341664,43.9299218 C37.9742511,43.5536777 38.4296069,43.3298163 38.9128655,43.3504513 C39.3961242,43.3710863 39.8256425,43.6327316 40.0246838,44.0277262 C40.2009462,44.3202043 40.6085312,44.4293124 40.9350502,44.271426 C41.2615692,44.1135396 41.3833761,43.7484471 41.2071137,43.455969 C41.0622221,43.2150564 41.0212561,42.9348391 41.0920099,42.6686313 L41.0920099,42.5374083 C41.1896216,42.2635059 41.3988414,42.0325928 41.6779928,41.8906666 C41.829615,41.8160303 41.9972974,41.7712896 42.1698,41.7594436 C42.2636905,41.7501568 42.358437,41.7501568 42.4523275,41.7594436 C42.5220097,41.7552732 42.5919249,41.7552732 42.6616071,41.7594436 C42.722992,41.7838765 42.7824281,41.8120622 42.8394948,41.8438013 C42.9262303,41.8756126 43.010178,41.9132105 43.0906303,41.9562781 C43.2291986,42.0523739 43.3433437,42.1737898 43.4254777,42.3124547 C43.5889337,42.5794854 43.6267255,42.8938887 43.5304752,43.1859668 C43.4342249,43.4780449 43.2118844,43.7236674 42.9127426,43.868384 C42.5924576,44.035822 42.4769722,44.3999503 42.6511431,44.6932141 C42.7389087,44.8359699 42.8877392,44.9405956 43.0634035,44.9830272 C43.2390677,45.0254588 43.4264447,45.0020438 43.5824375,44.9181677 Z" id="Shape" stroke="#000000" fill="#000000" fill-rule="nonzero"></path>
        </g>
    </g>
</svg>
